<svg width="100" height="107" viewBox="0 0 100 107" fill="none" xmlns="http://www.w3.org/2000/svg">
<path d="M87.1608 73.1208C88.2827 68.9337 88.4325 64.5301 87.6017 60.1614C86.7709 55.7928 84.9757 51.5445 82.3187 47.6593C79.6616 43.7741 76.1947 40.328 72.1159 37.5177C68.0372 34.7074 63.4263 32.5881 58.5468 31.2806C53.6672 29.9731 48.6145 29.5032 43.677 29.8975C38.7395 30.2919 34.0141 31.5429 29.7704 33.579C25.5267 35.6152 21.8479 38.3967 18.9441 41.7647C16.0402 45.1327 13.9682 49.0212 12.8463 53.2082L16.2549 54.1216C17.2739 50.3187 19.1559 46.7868 21.7933 43.7278C24.4308 40.6688 27.7721 38.1425 31.6265 36.2931C35.4809 34.4437 39.7729 33.3075 44.2574 32.9493C48.7419 32.5911 53.3311 33.018 57.7631 34.2055C62.195 35.3931 66.3828 37.318 70.0874 39.8705C73.792 42.4229 76.9409 45.5529 79.3542 49.0817C81.7675 52.6105 83.398 56.469 84.1526 60.4369C84.9072 64.4049 84.7711 68.4045 83.7521 72.2074L87.1608 73.1208Z" fill="#FF480E"/>
<ellipse cx="83.5415" cy="77.462" rx="6.81997" ry="9.24242" transform="rotate(-165 83.5415 77.462)" fill="#FF480E"/>
<path d="M7.63547 55.4431C7.90473 54.4382 8.34175 53.4888 8.92157 52.6491C9.50139 51.8094 10.2127 51.0959 11.0148 50.5492C11.8169 50.0025 12.6941 49.6335 13.5964 49.4631C14.4987 49.2927 15.4083 49.3243 16.2734 49.5561C17.1385 49.7879 17.9421 50.2153 18.6383 50.814C19.3345 51.4128 19.9097 52.171 20.331 53.0455C20.7523 53.92 21.0115 54.8935 21.0938 55.9106C21.1761 56.9277 21.0799 57.9685 20.8106 58.9734L14.2231 57.2082L7.63547 55.4431Z" fill="#FF480E"/>
<rect x="12.4526" y="70.4031" width="3.40998" height="13.2035" transform="rotate(-165 12.4526 70.4031)" fill="#FF480E"/>
<rect x="7.51196" y="69.0792" width="3.40998" height="13.2035" transform="rotate(-165 7.51196 69.0792)" fill="#FF480E"/>
<rect x="17.3933" y="71.7269" width="3.40998" height="13.2035" transform="rotate(-165 17.3933 71.7269)" fill="#FF480E"/>
<path d="M47.1315 11.6571C46.8173 12.8295 46.3745 13.9551 45.8283 14.9696C45.2821 15.9842 44.6432 16.8678 43.9481 17.5701C43.253 18.2723 42.5153 18.7795 41.7771 19.0625C41.0389 19.3456 40.3147 19.399 39.6458 19.2198C38.9769 19.0406 38.3765 18.6322 37.8787 18.0179C37.381 17.4037 36.9957 16.5957 36.7448 15.6399C36.494 14.6842 36.3825 13.5995 36.4167 12.4478C36.451 11.2961 36.6303 10.0999 36.9444 8.92749L42.038 10.2923L47.1315 11.6571Z" fill="#FF480E"/>
<ellipse cx="66.2507" cy="14.556" rx="5.2732" ry="9.24242" transform="rotate(15 66.2507 14.556)" fill="#FF480E"/>
</svg>
