<svg width="195" height="201" viewBox="0 0 195 201" fill="none" xmlns="http://www.w3.org/2000/svg">
<path d="M28.8246 60.5483C26.7683 68.2225 26.4937 76.2936 28.0164 84.3008C29.5392 92.3079 32.8295 100.094 37.6995 107.215C42.5695 114.336 48.9238 120.653 56.3996 125.803C63.8754 130.954 72.3263 134.839 81.2698 137.235C90.2134 139.632 99.4743 140.493 108.524 139.77C117.574 139.047 126.235 136.754 134.013 133.022C141.791 129.29 148.534 124.192 153.856 118.019C159.178 111.846 162.976 104.719 165.032 97.045L158.785 95.3709C156.917 102.341 153.468 108.814 148.634 114.421C143.799 120.028 137.675 124.658 130.611 128.048C123.546 131.438 115.68 133.52 107.46 134.177C99.2408 134.833 90.8294 134.051 82.7063 131.874C74.5832 129.698 66.9076 126.169 60.1176 121.491C53.3275 116.813 47.5562 111.076 43.1329 104.608C38.7097 98.1405 35.7212 91.0685 34.3382 83.7959C32.9551 76.5233 33.2045 69.1926 35.0722 62.2223L28.8246 60.5483Z" fill="white"/>
<ellipse cx="35.4585" cy="52.5915" rx="12.5" ry="16.94" transform="rotate(15 35.4585 52.5915)" fill="white"/>
<path d="M174.583 92.9489C174.089 94.7907 173.288 96.5308 172.226 98.0698C171.163 99.6089 169.859 100.917 168.389 101.919C166.919 102.921 165.311 103.597 163.657 103.909C162.004 104.222 160.336 104.164 158.751 103.739C157.165 103.314 155.692 102.531 154.416 101.433C153.14 100.336 152.086 98.9461 151.314 97.3433C150.542 95.7405 150.066 93.9561 149.916 92.0919C149.765 90.2277 149.941 88.3202 150.435 86.4784L162.509 89.7136L174.583 92.9489Z" fill="white"/>
<rect x="165.754" y="65.5294" width="6.25" height="24.2" transform="rotate(15 165.754 65.5294)" fill="white"/>
<rect x="174.809" y="67.9558" width="6.25" height="24.2" transform="rotate(15 174.809 67.9558)" fill="white"/>
<rect x="156.698" y="63.103" width="6.25" height="24.2" transform="rotate(15 156.698 63.103)" fill="white"/>
<ellipse cx="82.3416" cy="46.043" rx="9.665" ry="16.94" transform="rotate(15 82.3416 46.043)" fill="white"/>
<ellipse cx="126.72" cy="53.8578" rx="9.665" ry="16.94" transform="rotate(15 126.72 53.8578)" fill="white"/>
<path d="M16.98 178.94C17.02 179.6 17.01 180.28 16.95 180.98C16.91 181.68 16.84 182.36 16.74 183.02C16.54 184.16 16.17 185.27 15.63 186.35C15.09 187.43 14.3 188.35 13.26 189.11C12.18 189.91 10.95 190.46 9.57 190.76C8.19 191.04 6.82 191.21 5.46 191.27C5 191.31 4.53 191.32 4.05 191.3C3.59 191.3 3.14 191.25 2.7 191.15C2.34 191.09 2.07 190.98 1.89 190.82C1.79 190.76 1.71 190.68 1.65 190.58C1.59 190.48 1.54 190.38 1.5 190.28C1.44 190.18 1.39 190.08 1.35 189.98C1.33 189.86 1.3 189.74 1.26 189.62C1.24 189.52 1.22 189.43 1.2 189.35C1.2 189.25 1.2 189.16 1.2 189.08V171.95C1.2 171.81 1.2 171.68 1.2 171.56C1.2 171.44 1.22 171.32 1.26 171.2C1.3 170.92 1.36 170.69 1.44 170.51C1.52 170.27 1.63 170.1 1.77 170C1.89 169.9 2.01 169.83 2.13 169.79C2.25 169.73 2.36 169.68 2.46 169.64C2.58 169.6 2.7 169.6 2.82 169.64C2.96 169.66 3.11 169.63 3.27 169.55L8.28 169.67C9.6 169.71 10.78 170.02 11.82 170.6C12.86 171.16 13.75 171.88 14.49 172.76C15.23 173.64 15.81 174.63 16.23 175.73C16.65 176.81 16.9 177.88 16.98 178.94ZM11.4 184.64C11.78 184.04 12.06 183.35 12.24 182.57C12.42 181.79 12.5 181 12.48 180.2C12.46 179.38 12.35 178.59 12.15 177.83C11.95 177.05 11.67 176.36 11.31 175.76C11.03 175.32 10.67 174.96 10.23 174.68C9.79 174.4 9.3 174.19 8.76 174.05C8.22 173.89 7.64 173.78 7.02 173.72C6.42 173.66 5.83 173.63 5.25 173.63C5.27 174.21 5.28 174.77 5.28 175.31C5.28 175.85 5.28 176.42 5.28 177.02C5.26 177.74 5.25 178.44 5.25 179.12C5.25 179.8 5.25 180.46 5.25 181.1V187.22C5.87 187.2 6.46 187.17 7.02 187.13C7.6 187.07 8.15 186.95 8.67 186.77C9.21 186.59 9.7 186.34 10.14 186.02C10.6 185.68 11.02 185.22 11.4 184.64ZM29.832 186.89C30.072 186.83 30.312 186.79 30.552 186.77C30.812 186.75 31.042 186.78 31.242 186.86C31.462 186.94 31.642 187.08 31.782 187.28C31.922 187.46 31.992 187.72 31.992 188.06C31.992 188.3 31.932 188.53 31.812 188.75C31.692 188.97 31.542 189.17 31.362 189.35C31.182 189.53 30.982 189.69 30.762 189.83C30.542 189.95 30.332 190.05 30.132 190.13C29.552 190.39 28.882 190.59 28.122 190.73C27.382 190.87 26.612 190.92 25.812 190.88C24.732 190.84 23.692 190.63 22.692 190.25C21.712 189.85 20.942 189.2 20.382 188.3C19.862 187.42 19.552 186.44 19.452 185.36C19.352 184.28 19.402 183.26 19.602 182.3C19.822 181.14 20.192 180.2 20.712 179.48C21.252 178.74 21.892 178.15 22.632 177.71C23.532 177.19 24.542 176.92 25.662 176.9C26.782 176.88 27.852 177.1 28.872 177.56C29.552 177.86 30.162 178.27 30.702 178.79C31.242 179.29 31.652 179.9 31.932 180.62C32.012 180.8 32.072 181.02 32.112 181.28C32.172 181.54 32.212 181.82 32.232 182.12C32.252 182.4 32.252 182.68 32.232 182.96C32.212 183.24 32.162 183.49 32.082 183.71C31.962 184.07 31.812 184.35 31.632 184.55C31.452 184.75 31.222 184.9 30.942 185C30.662 185.1 30.322 185.17 29.922 185.21C29.542 185.23 29.082 185.25 28.542 185.27C28.062 185.29 27.612 185.3 27.192 185.3C26.772 185.3 26.342 185.3 25.902 185.3C25.462 185.28 25.002 185.27 24.522 185.27C24.062 185.25 23.542 185.23 22.962 185.21C22.902 185.61 22.952 185.96 23.112 186.26C23.292 186.54 23.532 186.78 23.832 186.98C24.132 187.16 24.472 187.3 24.852 187.4C25.232 187.5 25.602 187.56 25.962 187.58C26.642 187.62 27.292 187.57 27.912 187.43C28.532 187.27 29.172 187.09 29.832 186.89ZM28.542 181.07C28.162 180.63 27.762 180.31 27.342 180.11C27.022 179.97 26.682 179.91 26.322 179.93C25.982 179.93 25.652 179.98 25.332 180.08C24.752 180.22 24.262 180.52 23.862 180.98C23.822 181.02 23.752 181.12 23.652 181.28C23.552 181.42 23.452 181.57 23.352 181.73C23.272 181.89 23.212 182.04 23.172 182.18C23.132 182.32 23.152 182.39 23.232 182.39H29.112C29.092 182.11 29.042 181.88 28.962 181.7C28.882 181.5 28.742 181.29 28.542 181.07ZM39.2916 188.6C39.2716 188.7 39.2516 188.8 39.2316 188.9C39.2316 188.98 39.2316 189.07 39.2316 189.17L39.0516 189.8C39.0116 189.88 38.9816 189.93 38.9616 189.95L38.8716 190.13C38.7716 190.35 38.5916 190.53 38.3316 190.67C37.8516 190.91 37.3416 190.97 36.8016 190.85C36.4616 190.81 36.1916 190.71 35.9916 190.55C35.7916 190.41 35.6516 190.24 35.5716 190.04C35.4916 189.84 35.4316 189.64 35.3916 189.44C35.3316 189.24 35.3016 189.06 35.3016 188.9V172.1C35.3016 171.96 35.3016 171.84 35.3016 171.74C35.3216 171.62 35.3416 171.51 35.3616 171.41C35.3816 171.27 35.4016 171.15 35.4216 171.05C35.4616 170.95 35.5016 170.84 35.5416 170.72C35.6016 170.52 35.7116 170.36 35.8716 170.24C36.1116 170.06 36.3416 169.96 36.5616 169.94C36.7016 169.9 36.8316 169.88 36.9516 169.88C37.0716 169.86 37.2116 169.85 37.3716 169.85C37.6516 169.85 37.9716 169.93 38.3316 170.09C38.6116 170.25 38.8116 170.47 38.9316 170.75C39.1316 171.15 39.2316 171.52 39.2316 171.86C39.2516 172.06 39.2616 172.36 39.2616 172.76C39.2816 173.16 39.2916 173.46 39.2916 173.66V173.78C39.3316 174.42 39.3516 175.04 39.3516 175.64C39.3516 176.22 39.3416 176.86 39.3216 177.56C39.3216 178.24 39.3116 178.9 39.2916 179.54C39.2916 180.16 39.2916 180.78 39.2916 181.4V187.7C39.2916 187.78 39.2916 187.86 39.2916 187.94C39.3116 188 39.3216 188.07 39.3216 188.15C39.3216 188.35 39.3116 188.5 39.2916 188.6ZM45.5269 179.63C45.5269 180.19 45.5269 180.82 45.5269 181.52C45.5469 182.22 45.5569 182.95 45.5569 183.71C45.5569 184.45 45.5569 185.19 45.5569 185.93C45.5569 186.65 45.5469 187.32 45.5269 187.94C45.5069 188.24 45.4769 188.57 45.4369 188.93C45.3969 189.27 45.3169 189.59 45.1969 189.89C45.0769 190.19 44.8869 190.44 44.6269 190.64C44.3869 190.82 44.0569 190.9 43.6369 190.88C43.0169 190.84 42.5669 190.57 42.2869 190.07C42.0269 189.57 41.8769 188.87 41.8369 187.97C41.8369 187.51 41.8269 186.98 41.8069 186.38C41.8069 185.78 41.7969 185.17 41.7769 184.55C41.7769 183.93 41.7769 183.33 41.7769 182.75C41.7769 182.15 41.7769 181.61 41.7769 181.13C41.7769 180.85 41.7669 180.51 41.7469 180.11C41.7469 179.71 41.7569 179.3 41.7769 178.88C41.7969 178.46 41.8469 178.06 41.9269 177.68C42.0069 177.28 42.1369 176.95 42.3169 176.69C42.4569 176.53 42.6569 176.41 42.9169 176.33C43.1769 176.23 43.4469 176.18 43.7269 176.18C44.0269 176.18 44.3069 176.23 44.5669 176.33C44.8469 176.43 45.0469 176.57 45.1669 176.75C45.2469 176.87 45.3069 177.04 45.3469 177.26C45.3869 177.48 45.4169 177.73 45.4369 178.01C45.4769 178.27 45.4969 178.55 45.4969 178.85C45.5169 179.13 45.5269 179.39 45.5269 179.63ZM44.3869 173.57C43.7669 173.73 43.2469 173.67 42.8269 173.39C42.4269 173.09 42.1769 172.65 42.0769 172.07C41.9969 171.65 42.0269 171.28 42.1669 170.96C42.3069 170.64 42.5169 170.4 42.7969 170.24C43.0769 170.06 43.3969 169.98 43.7569 170C44.1169 170.02 44.4769 170.16 44.8369 170.42C45.1769 170.66 45.4169 170.94 45.5569 171.26C45.7169 171.58 45.7669 171.89 45.7069 172.19C45.6669 172.49 45.5369 172.77 45.3169 173.03C45.0969 173.27 44.7869 173.45 44.3869 173.57ZM61.5129 177.86C61.5929 178.1 61.6129 178.37 61.5729 178.67C61.5329 178.97 61.4629 179.28 61.3629 179.6C61.2629 179.9 61.1429 180.2 61.0029 180.5C60.8829 180.78 60.7729 181.03 60.6729 181.25C60.1529 182.31 59.6629 183.35 59.2029 184.37C58.7429 185.39 58.2029 186.5 57.5829 187.7C57.4629 187.94 57.3229 188.23 57.1629 188.57C57.0229 188.89 56.8629 189.21 56.6829 189.53C56.5029 189.83 56.3029 190.11 56.0829 190.37C55.8829 190.63 55.6629 190.82 55.4229 190.94C55.2229 191.06 55.0229 191.11 54.8229 191.09C54.6629 191.13 54.4829 191.08 54.2829 190.94C54.0429 190.82 53.8129 190.63 53.5929 190.37C53.3929 190.11 53.2029 189.83 53.0229 189.53C52.8429 189.21 52.6729 188.89 52.5129 188.57C52.3729 188.23 52.2429 187.94 52.1229 187.7C51.8829 187.24 51.6529 186.81 51.4329 186.41C51.2329 186.01 51.0129 185.58 50.7729 185.12C50.5529 184.64 50.3029 184.1 50.0229 183.5C49.7429 182.88 49.4129 182.13 49.0329 181.25C48.9329 181.01 48.8229 180.76 48.7029 180.5C48.5829 180.24 48.4729 179.96 48.3729 179.66C48.2929 179.36 48.2329 179.06 48.1929 178.76C48.1729 178.44 48.1929 178.12 48.2529 177.8C48.3129 177.5 48.4629 177.26 48.7029 177.08C48.9429 176.9 49.2129 176.78 49.5129 176.72C49.8129 176.66 50.1129 176.67 50.4129 176.75C50.7129 176.81 50.9529 176.94 51.1329 177.14C51.3129 177.32 51.4829 177.56 51.6429 177.86C51.8029 178.16 51.9529 178.48 52.0929 178.82C52.2529 179.14 52.3929 179.47 52.5129 179.81C52.6529 180.13 52.7829 180.41 52.9029 180.65C53.1829 181.23 53.4929 181.86 53.8329 182.54C54.1929 183.22 54.5129 183.85 54.7929 184.43C54.9929 183.97 55.1729 183.59 55.3329 183.29C55.4929 182.97 55.6429 182.66 55.7829 182.36C55.9429 182.06 56.1029 181.73 56.2629 181.37C56.4429 181.01 56.6629 180.55 56.9229 179.99C57.1629 179.47 57.4029 178.96 57.6429 178.46C57.9029 177.96 58.2129 177.52 58.5729 177.14C58.7529 176.94 58.9829 176.81 59.2629 176.75C59.5429 176.67 59.8329 176.66 60.1329 176.72C60.4329 176.78 60.7029 176.91 60.9429 177.11C61.2029 177.29 61.3929 177.54 61.5129 177.86ZM73.4843 186.89C73.7243 186.83 73.9643 186.79 74.2043 186.77C74.4643 186.75 74.6943 186.78 74.8943 186.86C75.1143 186.94 75.2943 187.08 75.4343 187.28C75.5743 187.46 75.6443 187.72 75.6443 188.06C75.6443 188.3 75.5843 188.53 75.4643 188.75C75.3443 188.97 75.1943 189.17 75.0143 189.35C74.8343 189.53 74.6343 189.69 74.4143 189.83C74.1943 189.95 73.9843 190.05 73.7843 190.13C73.2043 190.39 72.5343 190.59 71.7743 190.73C71.0343 190.87 70.2643 190.92 69.4643 190.88C68.3843 190.84 67.3443 190.63 66.3443 190.25C65.3643 189.85 64.5943 189.2 64.0343 188.3C63.5143 187.42 63.2043 186.44 63.1043 185.36C63.0043 184.28 63.0543 183.26 63.2543 182.3C63.4743 181.14 63.8443 180.2 64.3643 179.48C64.9043 178.74 65.5443 178.15 66.2843 177.71C67.1843 177.19 68.1943 176.92 69.3143 176.9C70.4343 176.88 71.5043 177.1 72.5243 177.56C73.2043 177.86 73.8143 178.27 74.3543 178.79C74.8943 179.29 75.3043 179.9 75.5843 180.62C75.6643 180.8 75.7243 181.02 75.7643 181.28C75.8243 181.54 75.8643 181.82 75.8843 182.12C75.9043 182.4 75.9043 182.68 75.8843 182.96C75.8643 183.24 75.8143 183.49 75.7343 183.71C75.6143 184.07 75.4643 184.35 75.2843 184.55C75.1043 184.75 74.8743 184.9 74.5943 185C74.3143 185.1 73.9743 185.17 73.5743 185.21C73.1943 185.23 72.7343 185.25 72.1943 185.27C71.7143 185.29 71.2643 185.3 70.8443 185.3C70.4243 185.3 69.9943 185.3 69.5543 185.3C69.1143 185.28 68.6543 185.27 68.1743 185.27C67.7143 185.25 67.1943 185.23 66.6143 185.21C66.5543 185.61 66.6043 185.96 66.7643 186.26C66.9443 186.54 67.1843 186.78 67.4843 186.98C67.7843 187.16 68.1243 187.3 68.5043 187.4C68.8843 187.5 69.2543 187.56 69.6143 187.58C70.2943 187.62 70.9443 187.57 71.5643 187.43C72.1843 187.27 72.8243 187.09 73.4843 186.89ZM72.1943 181.07C71.8143 180.63 71.4143 180.31 70.9943 180.11C70.6743 179.97 70.3343 179.91 69.9743 179.93C69.6343 179.93 69.3043 179.98 68.9843 180.08C68.4043 180.22 67.9143 180.52 67.5143 180.98C67.4743 181.02 67.4043 181.12 67.3043 181.28C67.2043 181.42 67.1043 181.57 67.0043 181.73C66.9243 181.89 66.8643 182.04 66.8243 182.18C66.7843 182.32 66.8043 182.39 66.8843 182.39H72.7643C72.7443 182.11 72.6943 181.88 72.6143 181.7C72.5343 181.5 72.3943 181.29 72.1943 181.07ZM78.3394 180.38C78.3394 180.14 78.3394 179.87 78.3394 179.57C78.3394 179.25 78.3494 178.93 78.3694 178.61C78.3894 178.27 78.4194 177.95 78.4594 177.65C78.5194 177.33 78.5994 177.05 78.6994 176.81C78.8594 176.45 79.1094 176.21 79.4494 176.09C79.7894 175.95 80.1594 175.89 80.5594 175.91C80.9794 175.91 81.3094 175.98 81.5494 176.12C81.7894 176.26 81.9694 176.45 82.0894 176.69C82.2094 176.91 82.2794 177.17 82.2994 177.47C82.3394 177.75 82.3594 178.05 82.3594 178.37C82.5394 178.05 82.7794 177.79 83.0794 177.59C83.3994 177.39 83.7194 177.23 84.0394 177.11C84.3594 176.99 84.6494 176.91 84.9094 176.87C85.1694 176.81 85.3194 176.78 85.3594 176.78C85.8594 176.74 86.3094 176.73 86.7094 176.75C87.1294 176.77 87.5894 176.86 88.0894 177.02C88.4094 177.14 88.7394 177.31 89.0794 177.53C89.4194 177.73 89.7194 177.97 89.9794 178.25C90.2394 178.53 90.4094 178.84 90.4894 179.18C90.5894 179.5 90.5494 179.84 90.3694 180.2C90.0894 180.7 89.7794 180.95 89.4394 180.95C89.0994 180.93 88.7294 180.87 88.3294 180.77C88.1094 180.73 87.8494 180.64 87.5494 180.5C87.2494 180.36 86.9894 180.27 86.7694 180.23C86.0894 180.13 85.4894 180.18 84.9694 180.38C84.4494 180.58 83.9994 180.82 83.6194 181.1C83.1794 181.44 82.7994 181.83 82.4794 182.27V186.59C82.4794 187.13 82.4694 187.69 82.4494 188.27C82.4494 188.85 82.3694 189.38 82.2094 189.86C82.0694 190.32 81.8194 190.7 81.4594 191C81.1194 191.28 80.6194 191.4 79.9594 191.36C79.5994 191.34 79.2794 191.17 78.9994 190.85C78.7194 190.51 78.5494 190.18 78.4894 189.86C78.4494 189.56 78.4194 189.2 78.3994 188.78C78.3794 188.36 78.3594 187.92 78.3394 187.46C78.3394 187 78.3394 186.54 78.3394 186.08C78.3394 185.6 78.3394 185.16 78.3394 184.76V180.38ZM105.439 177.62C105.619 177.9 105.699 178.2 105.679 178.52C105.679 178.98 105.599 179.38 105.439 179.72C105.399 179.82 105.339 179.95 105.259 180.11C105.199 180.27 105.129 180.44 105.049 180.62C104.989 180.8 104.919 180.97 104.839 181.13C104.759 181.29 104.699 181.41 104.659 181.49L104.599 181.64C104.319 182.26 104.049 182.86 103.789 183.44C103.529 184.02 103.239 184.64 102.919 185.3C102.599 185.94 102.289 186.57 101.989 187.19C101.709 187.79 101.429 188.38 101.149 188.96C101.069 189.12 100.999 189.28 100.939 189.44C100.879 189.58 100.799 189.73 100.699 189.89L99.2588 192.98C98.9988 193.5 98.7488 194.01 98.5088 194.51C98.2888 195.01 98.0388 195.51 97.7588 196.01C97.6988 196.11 97.6388 196.2 97.5788 196.28C97.5388 196.38 97.4988 196.48 97.4588 196.58C97.3188 196.82 97.1088 197.05 96.8288 197.27C96.5688 197.51 96.2888 197.64 95.9888 197.66C95.4488 197.7 94.9788 197.54 94.5788 197.18C94.3388 197.04 94.1488 196.84 94.0088 196.58C93.9288 196.4 93.8888 196.17 93.8888 195.89C93.9088 195.77 93.9188 195.65 93.9188 195.53C93.9388 195.43 93.9588 195.33 93.9788 195.23C94.0188 195.13 94.0488 195.03 94.0688 194.93C94.0888 194.83 94.1188 194.75 94.1588 194.69C94.2188 194.53 94.2688 194.45 94.3088 194.45L96.4988 189.71C96.3988 189.49 96.2988 189.27 96.1988 189.05C96.0988 188.81 96.0088 188.6 95.9288 188.42C95.6688 187.8 95.3888 187.15 95.0888 186.47C94.8088 185.77 94.5188 185.08 94.2188 184.4C93.9188 183.7 93.6088 183.02 93.2888 182.36C92.9688 181.7 92.6488 181.07 92.3288 180.47C92.2088 180.27 92.0988 180.06 91.9988 179.84C91.8988 179.6 91.8188 179.37 91.7588 179.15C91.6988 178.91 91.6788 178.67 91.6988 178.43C91.7188 178.19 91.8088 177.95 91.9688 177.71C92.1288 177.41 92.3388 177.2 92.5988 177.08C92.8588 176.94 93.1288 176.88 93.4088 176.9C93.7088 176.9 93.9888 176.96 94.2488 177.08C94.5088 177.2 94.7188 177.36 94.8787 177.56C95.2188 177.92 95.4888 178.32 95.6888 178.76C95.8888 179.2 96.0788 179.65 96.2588 180.11C96.6388 180.91 97.0288 181.75 97.4288 182.63C97.8288 183.51 98.2288 184.37 98.6288 185.21L100.189 181.91C100.349 181.59 100.489 181.28 100.609 180.98C100.749 180.68 100.889 180.39 101.029 180.11C101.189 179.77 101.339 179.42 101.479 179.06C101.639 178.7 101.819 178.37 102.019 178.07C102.059 177.99 102.099 177.92 102.139 177.86C102.179 177.8 102.219 177.73 102.259 177.65C102.439 177.41 102.599 177.22 102.739 177.08C102.839 177 102.919 176.94 102.979 176.9C103.059 176.84 103.149 176.8 103.249 176.78C103.389 176.74 103.519 176.72 103.639 176.72C103.779 176.7 103.909 176.7 104.029 176.72C104.229 176.78 104.469 176.87 104.749 176.99C105.049 177.11 105.279 177.32 105.439 177.62ZM131.094 171.65C131.854 172.35 132.414 173.19 132.774 174.17C133.134 175.13 133.274 176.09 133.194 177.05C133.114 177.97 132.824 178.82 132.324 179.6C131.824 180.36 131.064 180.94 130.044 181.34C129.244 181.68 128.454 181.92 127.674 182.06C126.894 182.2 126.034 182.31 125.094 182.39C124.674 182.43 124.314 182.46 124.014 182.48C123.734 182.48 123.404 182.49 123.024 182.51C122.944 182.51 122.804 182.51 122.604 182.51C122.424 182.51 122.294 182.52 122.214 182.54V188.75C122.154 189.13 122.074 189.52 121.974 189.92C121.894 190.32 121.664 190.63 121.284 190.85C121.064 190.97 120.794 191.04 120.474 191.06C120.154 191.08 119.864 191.07 119.604 191.03C119.324 190.99 119.084 190.92 118.884 190.82C118.704 190.7 118.554 190.5 118.434 190.22C118.354 190.04 118.274 189.84 118.194 189.62C118.134 189.38 118.104 189.09 118.104 188.75V172.16C118.104 172.02 118.114 171.89 118.134 171.77C118.154 171.65 118.174 171.53 118.194 171.41C118.234 171.31 118.264 171.2 118.284 171.08C118.304 170.96 118.334 170.85 118.374 170.75C118.414 170.65 118.454 170.56 118.494 170.48C118.554 170.4 118.624 170.33 118.704 170.27C118.804 170.17 118.954 170.08 119.154 170C119.374 169.92 119.694 169.88 120.114 169.88H120.174C120.794 169.84 121.484 169.81 122.244 169.79C123.004 169.75 123.634 169.76 124.134 169.82C124.414 169.86 124.674 169.89 124.914 169.91C125.154 169.91 125.384 169.92 125.604 169.94C125.844 169.96 126.084 169.98 126.324 170C126.564 170.02 126.804 170.05 127.044 170.09C127.244 170.13 127.424 170.16 127.584 170.18C127.764 170.2 127.944 170.23 128.124 170.27C128.284 170.31 128.454 170.35 128.634 170.39C128.834 170.43 129.014 170.5 129.174 170.6C129.594 170.72 129.944 170.87 130.224 171.05C130.504 171.23 130.794 171.43 131.094 171.65ZM129.294 176.6C129.314 176.12 129.214 175.7 128.994 175.34C128.794 174.98 128.504 174.68 128.124 174.44C127.744 174.2 127.314 174.01 126.834 173.87C126.354 173.73 125.874 173.63 125.394 173.57C125.274 173.57 125.104 173.57 124.884 173.57C124.684 173.55 124.464 173.54 124.224 173.54C123.984 173.52 123.754 173.51 123.534 173.51C123.334 173.49 123.174 173.48 123.054 173.48C122.954 173.46 122.834 173.45 122.694 173.45C122.554 173.45 122.394 173.45 122.214 173.45C122.234 174.07 122.244 174.67 122.244 175.25C122.244 175.81 122.244 176.42 122.244 177.08C122.224 177.44 122.214 177.8 122.214 178.16C122.214 178.52 122.214 178.87 122.214 179.21L124.074 179.18C124.554 179.18 125.084 179.15 125.664 179.09C126.244 179.03 126.794 178.91 127.314 178.73C127.834 178.55 128.274 178.29 128.634 177.95C129.014 177.61 129.234 177.16 129.294 176.6ZM136.907 178.37C137.507 178.07 138.137 177.86 138.797 177.74C139.457 177.6 140.107 177.57 140.747 177.65C141.407 177.71 142.037 177.88 142.637 178.16C143.237 178.42 143.797 178.8 144.317 179.3C144.837 179.82 145.237 180.39 145.517 181.01C145.797 181.63 145.997 182.32 146.117 183.08C146.197 183.6 146.327 184.08 146.507 184.52C146.687 184.96 146.877 185.4 147.077 185.84C147.297 186.28 147.497 186.72 147.677 187.16C147.877 187.6 148.037 188.06 148.157 188.54C148.257 189 148.217 189.45 148.037 189.89C147.877 190.31 147.537 190.57 147.017 190.67C146.717 190.73 146.427 190.71 146.147 190.61C145.887 190.49 145.647 190.33 145.427 190.13C145.207 189.91 145.007 189.68 144.827 189.44C144.667 189.18 144.517 188.94 144.377 188.72C143.917 189.32 143.417 189.79 142.877 190.13C142.337 190.45 141.687 190.66 140.927 190.76C140.287 190.84 139.677 190.86 139.097 190.82C138.517 190.78 137.897 190.67 137.237 190.49C136.377 190.27 135.667 189.89 135.107 189.35C134.567 188.79 134.147 188.15 133.847 187.43C133.567 186.69 133.417 185.9 133.397 185.06C133.377 184.22 133.477 183.39 133.697 182.57C133.977 181.49 134.397 180.61 134.957 179.93C135.517 179.25 136.167 178.73 136.907 178.37ZM137.657 181.88C137.377 182.16 137.157 182.49 136.997 182.87C136.837 183.25 136.737 183.65 136.697 184.07C136.677 184.49 136.717 184.91 136.817 185.33C136.917 185.75 137.077 186.12 137.297 186.44C137.497 186.72 137.837 186.96 138.317 187.16C138.797 187.34 139.297 187.45 139.817 187.49C140.417 187.53 140.937 187.37 141.377 187.01C141.837 186.65 142.177 186.2 142.397 185.66C142.637 185.1 142.747 184.51 142.727 183.89C142.707 183.25 142.537 182.67 142.217 182.15C141.977 181.77 141.657 181.49 141.257 181.31C140.877 181.13 140.467 181.04 140.027 181.04C139.587 181.02 139.147 181.09 138.707 181.25C138.287 181.39 137.937 181.6 137.657 181.88ZM150.683 180.38C150.683 180.14 150.683 179.87 150.683 179.57C150.683 179.25 150.693 178.93 150.713 178.61C150.733 178.27 150.763 177.95 150.803 177.65C150.863 177.33 150.943 177.05 151.043 176.81C151.203 176.45 151.453 176.21 151.793 176.09C152.133 175.95 152.503 175.89 152.903 175.91C153.323 175.91 153.653 175.98 153.893 176.12C154.133 176.26 154.313 176.45 154.433 176.69C154.553 176.91 154.623 177.17 154.643 177.47C154.683 177.75 154.703 178.05 154.703 178.37C154.883 178.05 155.123 177.79 155.423 177.59C155.743 177.39 156.063 177.23 156.383 177.11C156.703 176.99 156.993 176.91 157.253 176.87C157.513 176.81 157.663 176.78 157.703 176.78C158.203 176.74 158.653 176.73 159.053 176.75C159.473 176.77 159.933 176.86 160.433 177.02C160.753 177.14 161.083 177.31 161.423 177.53C161.763 177.73 162.063 177.97 162.323 178.25C162.583 178.53 162.753 178.84 162.833 179.18C162.933 179.5 162.893 179.84 162.713 180.2C162.433 180.7 162.123 180.95 161.783 180.95C161.443 180.93 161.073 180.87 160.673 180.77C160.453 180.73 160.193 180.64 159.893 180.5C159.593 180.36 159.333 180.27 159.113 180.23C158.433 180.13 157.833 180.18 157.313 180.38C156.793 180.58 156.343 180.82 155.963 181.1C155.523 181.44 155.143 181.83 154.823 182.27V186.59C154.823 187.13 154.813 187.69 154.793 188.27C154.793 188.85 154.713 189.38 154.553 189.86C154.413 190.32 154.163 190.7 153.803 191C153.463 191.28 152.963 191.4 152.303 191.36C151.943 191.34 151.623 191.17 151.343 190.85C151.063 190.51 150.893 190.18 150.833 189.86C150.793 189.56 150.763 189.2 150.743 188.78C150.723 188.36 150.703 187.92 150.683 187.46C150.683 187 150.683 186.54 150.683 186.08C150.683 185.6 150.683 185.16 150.683 184.76V180.38ZM177.203 177.77C177.363 178.15 177.373 178.57 177.233 179.03C177.113 179.49 176.883 179.79 176.543 179.93C176.363 180.01 176.123 180.08 175.823 180.14C175.523 180.18 175.193 180.22 174.833 180.26C174.493 180.3 174.153 180.33 173.813 180.35C173.473 180.37 173.183 180.38 172.943 180.38C172.963 180.98 172.983 181.6 173.003 182.24C173.023 182.86 173.043 183.47 173.063 184.07C173.083 184.67 173.093 185.25 173.093 185.81C173.093 186.35 173.083 186.84 173.063 187.28C173.063 187.58 173.063 187.93 173.063 188.33C173.063 188.71 173.033 189.08 172.973 189.44C172.933 189.8 172.863 190.12 172.763 190.4C172.663 190.66 172.513 190.83 172.313 190.91C171.693 191.17 171.123 191.24 170.603 191.12C170.103 191.02 169.743 190.81 169.523 190.49C169.363 190.23 169.243 189.93 169.163 189.59C169.083 189.23 169.023 188.87 168.983 188.51C168.963 188.13 168.953 187.77 168.953 187.43C168.973 187.07 168.983 186.76 168.983 186.5C169.003 185.66 169.013 184.71 169.013 183.65C169.033 182.57 169.043 181.49 169.043 180.41H168.593C168.353 180.41 168.043 180.41 167.663 180.41C167.303 180.39 166.933 180.36 166.553 180.32C166.193 180.26 165.853 180.19 165.533 180.11C165.213 180.01 164.983 179.87 164.843 179.69C164.623 179.43 164.483 179.15 164.423 178.85C164.383 178.55 164.403 178.27 164.483 178.01C164.583 177.73 164.733 177.49 164.933 177.29C165.133 177.07 165.363 176.93 165.623 176.87C165.983 176.77 166.493 176.72 167.153 176.72C167.813 176.7 168.433 176.7 169.013 176.72C168.993 176.52 168.983 176.33 168.983 176.15C168.983 175.95 168.973 175.76 168.953 175.58C168.933 175.34 168.923 175.04 168.923 174.68C168.923 174.3 168.943 173.93 168.983 173.57C169.043 173.19 169.133 172.84 169.253 172.52C169.373 172.18 169.543 171.92 169.763 171.74C170.063 171.5 170.363 171.37 170.663 171.35C170.983 171.31 171.273 171.35 171.533 171.47C171.813 171.59 172.043 171.77 172.223 172.01C172.423 172.23 172.563 172.48 172.643 172.76C172.703 173 172.753 173.29 172.793 173.63C172.833 173.95 172.853 174.29 172.853 174.65C172.873 175.01 172.883 175.37 172.883 175.73C172.883 176.09 172.883 176.42 172.883 176.72H173.183C173.483 176.72 173.833 176.71 174.233 176.69C174.633 176.67 175.023 176.68 175.403 176.72C175.803 176.76 176.163 176.86 176.483 177.02C176.803 177.16 177.043 177.41 177.203 177.77ZM192.548 177.62C192.728 177.9 192.808 178.2 192.788 178.52C192.788 178.98 192.708 179.38 192.548 179.72C192.508 179.82 192.448 179.95 192.368 180.11C192.308 180.27 192.238 180.44 192.158 180.62C192.098 180.8 192.028 180.97 191.948 181.13C191.868 181.29 191.808 181.41 191.768 181.49L191.708 181.64C191.428 182.26 191.158 182.86 190.898 183.44C190.638 184.02 190.348 184.64 190.028 185.3C189.708 185.94 189.398 186.57 189.098 187.19C188.818 187.79 188.538 188.38 188.258 188.96C188.178 189.12 188.108 189.28 188.048 189.44C187.988 189.58 187.908 189.73 187.808 189.89L186.368 192.98C186.108 193.5 185.858 194.01 185.618 194.51C185.398 195.01 185.148 195.51 184.868 196.01C184.808 196.11 184.748 196.2 184.688 196.28C184.648 196.38 184.608 196.48 184.568 196.58C184.428 196.82 184.218 197.05 183.938 197.27C183.678 197.51 183.398 197.64 183.098 197.66C182.558 197.7 182.088 197.54 181.688 197.18C181.448 197.04 181.258 196.84 181.118 196.58C181.038 196.4 180.998 196.17 180.998 195.89C181.018 195.77 181.028 195.65 181.028 195.53C181.048 195.43 181.068 195.33 181.088 195.23C181.128 195.13 181.158 195.03 181.178 194.93C181.198 194.83 181.228 194.75 181.268 194.69C181.328 194.53 181.378 194.45 181.418 194.45L183.608 189.71C183.508 189.49 183.408 189.27 183.308 189.05C183.208 188.81 183.118 188.6 183.038 188.42C182.778 187.8 182.498 187.15 182.198 186.47C181.918 185.77 181.628 185.08 181.328 184.4C181.028 183.7 180.718 183.02 180.398 182.36C180.078 181.7 179.758 181.07 179.438 180.47C179.318 180.27 179.208 180.06 179.108 179.84C179.008 179.6 178.928 179.37 178.868 179.15C178.808 178.91 178.788 178.67 178.808 178.43C178.828 178.19 178.918 177.95 179.078 177.71C179.238 177.41 179.448 177.2 179.708 177.08C179.968 176.94 180.238 176.88 180.518 176.9C180.818 176.9 181.098 176.96 181.358 177.08C181.618 177.2 181.828 177.36 181.988 177.56C182.328 177.92 182.598 178.32 182.798 178.76C182.998 179.2 183.188 179.65 183.368 180.11C183.748 180.91 184.138 181.75 184.538 182.63C184.938 183.51 185.338 184.37 185.738 185.21L187.298 181.91C187.458 181.59 187.598 181.28 187.718 180.98C187.858 180.68 187.998 180.39 188.138 180.11C188.298 179.77 188.448 179.42 188.588 179.06C188.748 178.7 188.928 178.37 189.128 178.07C189.168 177.99 189.208 177.92 189.248 177.86C189.288 177.8 189.328 177.73 189.368 177.65C189.548 177.41 189.708 177.22 189.848 177.08C189.948 177 190.028 176.94 190.088 176.9C190.168 176.84 190.258 176.8 190.358 176.78C190.498 176.74 190.628 176.72 190.748 176.72C190.888 176.7 191.018 176.7 191.138 176.72C191.338 176.78 191.578 176.87 191.858 176.99C192.158 177.11 192.388 177.32 192.548 177.62Z" fill="white"/>
</svg>
