<svg width="121" height="108" viewBox="0 0 121 108" fill="none" xmlns="http://www.w3.org/2000/svg">
<path d="M22.8392 33.035C21.7173 37.222 21.5675 41.6256 22.3983 45.9943C23.2291 50.363 25.0243 54.6112 27.6813 58.4964C30.3384 62.3816 33.8053 65.8278 37.8841 68.638C41.9628 71.4483 46.5737 73.5677 51.4532 74.8751C56.3328 76.1826 61.3855 76.6526 66.323 76.2582C71.2605 75.8638 75.9859 74.6129 80.2296 72.5767C84.4733 70.5405 88.1521 67.759 91.0559 64.3911C93.9598 61.0231 96.0318 57.1345 97.1537 52.9475L93.7451 52.0341C92.7261 55.8371 90.8441 59.3689 88.2067 62.4279C85.5692 65.4869 82.2279 68.0132 78.3735 69.8626C74.5191 71.712 70.2271 72.8482 65.7426 73.2064C61.2581 73.5646 56.6689 73.1377 52.2369 71.9502C47.805 70.7627 43.6172 68.8377 39.9126 66.2853C36.208 63.7328 33.0591 60.6028 30.6458 57.074C28.2325 53.5452 26.602 49.6867 25.8474 45.7188C25.0928 41.7509 25.2289 37.7513 26.2479 33.9483L22.8392 33.035Z" fill="#FF480E"/>
<ellipse cx="26.4585" cy="28.6938" rx="6.81997" ry="9.24242" transform="rotate(15 26.4585 28.6938)" fill="#FF480E"/>
<path d="M102.365 50.7127C102.095 51.7175 101.658 52.6669 101.078 53.5066C100.499 54.3463 99.7873 55.0599 98.9852 55.6065C98.1831 56.1532 97.3059 56.5223 96.4036 56.6927C95.5013 56.8631 94.5917 56.8315 93.7266 56.5997C92.8615 56.3679 92.0579 55.9404 91.3617 55.3417C90.6655 54.743 90.0903 53.9847 89.669 53.1103C89.2477 52.2358 88.9885 51.2622 88.9062 50.2451C88.8239 49.228 88.9201 48.1873 89.1894 47.1824L95.7769 48.9475L102.365 50.7127Z" fill="#FF480E"/>
<rect x="97.5474" y="35.7527" width="3.40998" height="13.2035" transform="rotate(15 97.5474 35.7527)" fill="#FF480E"/>
<rect x="102.488" y="37.0765" width="3.40998" height="13.2035" transform="rotate(15 102.488 37.0765)" fill="#FF480E"/>
<rect x="92.6067" y="34.4288" width="3.40998" height="13.2035" transform="rotate(15 92.6067 34.4288)" fill="#FF480E"/>
<ellipse cx="52.038" cy="25.1209" rx="5.2732" ry="9.24242" transform="rotate(15 52.038 25.1209)" fill="#FF480E"/>
<ellipse cx="76.2507" cy="29.3847" rx="5.2732" ry="9.24242" transform="rotate(15 76.2507 29.3847)" fill="#FF480E"/>
<path d="M10.188 94.764C10.212 95.16 10.206 95.568 10.17 95.988C10.146 96.408 10.104 96.816 10.044 97.212C9.924 97.896 9.702 98.562 9.378 99.21C9.054 99.858 8.58 100.41 7.956 100.866C7.308 101.346 6.57 101.676 5.742 101.856C4.914 102.024 4.092 102.126 3.276 102.162C3 102.186 2.718 102.192 2.43 102.18C2.154 102.18 1.884 102.15 1.62 102.09C1.404 102.054 1.242 101.988 1.134 101.892C1.074 101.856 1.026 101.808 0.99 101.748C0.954 101.688 0.924 101.628 0.9 101.568C0.864 101.508 0.834 101.448 0.81 101.388C0.798 101.316 0.78 101.244 0.756 101.172C0.744 101.112 0.732 101.058 0.72 101.01C0.72 100.95 0.72 100.896 0.72 100.848V90.57C0.72 90.486 0.72 90.408 0.72 90.336C0.72 90.264 0.732 90.192 0.756 90.12C0.78 89.952 0.816 89.814 0.864 89.706C0.912 89.562 0.978 89.46 1.062 89.4C1.134 89.34 1.206 89.298 1.278 89.274C1.35 89.238 1.416 89.208 1.476 89.184C1.548 89.16 1.62 89.16 1.692 89.184C1.776 89.196 1.866 89.178 1.962 89.13L4.968 89.202C5.76 89.226 6.468 89.412 7.092 89.76C7.716 90.096 8.25 90.528 8.694 91.056C9.138 91.584 9.486 92.178 9.738 92.838C9.99 93.486 10.14 94.128 10.188 94.764ZM6.84 98.184C7.068 97.824 7.236 97.41 7.344 96.942C7.452 96.474 7.5 96 7.488 95.52C7.476 95.028 7.41 94.554 7.29 94.098C7.17 93.63 7.002 93.216 6.786 92.856C6.618 92.592 6.402 92.376 6.138 92.208C5.874 92.04 5.58 91.914 5.256 91.83C4.932 91.734 4.584 91.668 4.212 91.632C3.852 91.596 3.498 91.578 3.15 91.578C3.162 91.926 3.168 92.262 3.168 92.586C3.168 92.91 3.168 93.252 3.168 93.612C3.156 94.044 3.15 94.464 3.15 94.872C3.15 95.28 3.15 95.676 3.15 96.06V99.732C3.522 99.72 3.876 99.702 4.212 99.678C4.56 99.642 4.89 99.57 5.202 99.462C5.526 99.354 5.82 99.204 6.084 99.012C6.36 98.808 6.612 98.532 6.84 98.184ZM17.8992 99.534C18.0432 99.498 18.1872 99.474 18.3312 99.462C18.4872 99.45 18.6252 99.468 18.7452 99.516C18.8772 99.564 18.9852 99.648 19.0692 99.768C19.1532 99.876 19.1952 100.032 19.1952 100.236C19.1952 100.38 19.1592 100.518 19.0872 100.65C19.0152 100.782 18.9252 100.902 18.8172 101.01C18.7092 101.118 18.5892 101.214 18.4572 101.298C18.3252 101.37 18.1992 101.43 18.0792 101.478C17.7312 101.634 17.3292 101.754 16.8732 101.838C16.4292 101.922 15.9672 101.952 15.4872 101.928C14.8392 101.904 14.2152 101.778 13.6152 101.55C13.0272 101.31 12.5652 100.92 12.2292 100.38C11.9172 99.852 11.7312 99.264 11.6712 98.616C11.6112 97.968 11.6412 97.356 11.7612 96.78C11.8932 96.084 12.1152 95.52 12.4272 95.088C12.7512 94.644 13.1352 94.29 13.5792 94.026C14.1192 93.714 14.7252 93.552 15.3972 93.54C16.0692 93.528 16.7112 93.66 17.3232 93.936C17.7312 94.116 18.0972 94.362 18.4212 94.674C18.7452 94.974 18.9912 95.34 19.1592 95.772C19.2072 95.88 19.2432 96.012 19.2672 96.168C19.3032 96.324 19.3272 96.492 19.3392 96.672C19.3512 96.84 19.3512 97.008 19.3392 97.176C19.3272 97.344 19.2972 97.494 19.2492 97.626C19.1772 97.842 19.0872 98.01 18.9792 98.13C18.8712 98.25 18.7332 98.34 18.5652 98.4C18.3972 98.46 18.1932 98.502 17.9532 98.526C17.7252 98.538 17.4492 98.55 17.1252 98.562C16.8372 98.574 16.5672 98.58 16.3152 98.58C16.0632 98.58 15.8052 98.58 15.5412 98.58C15.2772 98.568 15.0012 98.562 14.7132 98.562C14.4372 98.55 14.1252 98.538 13.7772 98.526C13.7412 98.766 13.7712 98.976 13.8672 99.156C13.9752 99.324 14.1192 99.468 14.2992 99.588C14.4792 99.696 14.6832 99.78 14.9112 99.84C15.1392 99.9 15.3612 99.936 15.5772 99.948C15.9852 99.972 16.3752 99.942 16.7472 99.858C17.1192 99.762 17.5032 99.654 17.8992 99.534ZM17.1252 96.042C16.8972 95.778 16.6572 95.586 16.4052 95.466C16.2132 95.382 16.0092 95.346 15.7932 95.358C15.5892 95.358 15.3912 95.388 15.1992 95.448C14.8512 95.532 14.5572 95.712 14.3172 95.988C14.2932 96.012 14.2512 96.072 14.1912 96.168C14.1312 96.252 14.0712 96.342 14.0112 96.438C13.9632 96.534 13.9272 96.624 13.9032 96.708C13.8792 96.792 13.8912 96.834 13.9392 96.834H17.4672C17.4552 96.666 17.4252 96.528 17.3772 96.42C17.3292 96.3 17.2452 96.174 17.1252 96.042ZM23.5749 100.56C23.5629 100.62 23.5509 100.68 23.5389 100.74C23.5389 100.788 23.5389 100.842 23.5389 100.902L23.4309 101.28C23.4069 101.328 23.3889 101.358 23.3769 101.37L23.3229 101.478C23.2629 101.61 23.1549 101.718 22.9989 101.802C22.7109 101.946 22.4049 101.982 22.0809 101.91C21.8769 101.886 21.7149 101.826 21.5949 101.73C21.4749 101.646 21.3909 101.544 21.3429 101.424C21.2949 101.304 21.2589 101.184 21.2349 101.064C21.1989 100.944 21.1809 100.836 21.1809 100.74V90.66C21.1809 90.576 21.1809 90.504 21.1809 90.444C21.1929 90.372 21.2049 90.306 21.2169 90.246C21.2289 90.162 21.2409 90.09 21.2529 90.03C21.2769 89.97 21.3009 89.904 21.3249 89.832C21.3609 89.712 21.4269 89.616 21.5229 89.544C21.6669 89.436 21.8049 89.376 21.9369 89.364C22.0209 89.34 22.0989 89.328 22.1709 89.328C22.2429 89.316 22.3269 89.31 22.4229 89.31C22.5909 89.31 22.7829 89.358 22.9989 89.454C23.1669 89.55 23.2869 89.682 23.3589 89.85C23.4789 90.09 23.5389 90.312 23.5389 90.516C23.5509 90.636 23.5569 90.816 23.5569 91.056C23.5689 91.296 23.5749 91.476 23.5749 91.596V91.668C23.5989 92.052 23.6109 92.424 23.6109 92.784C23.6109 93.132 23.6049 93.516 23.5929 93.936C23.5929 94.344 23.5869 94.74 23.5749 95.124C23.5749 95.496 23.5749 95.868 23.5749 96.24V100.02C23.5749 100.068 23.5749 100.116 23.5749 100.164C23.5869 100.2 23.5929 100.242 23.5929 100.29C23.5929 100.41 23.5869 100.5 23.5749 100.56ZM27.3161 95.178C27.3161 95.514 27.3161 95.892 27.3161 96.312C27.3281 96.732 27.3341 97.17 27.3341 97.626C27.3341 98.07 27.3341 98.514 27.3341 98.958C27.3341 99.39 27.3281 99.792 27.3161 100.164C27.3041 100.344 27.2861 100.542 27.2621 100.758C27.2381 100.962 27.1901 101.154 27.1181 101.334C27.0461 101.514 26.9321 101.664 26.7761 101.784C26.6321 101.892 26.4341 101.94 26.1821 101.928C25.8101 101.904 25.5401 101.742 25.3721 101.442C25.2161 101.142 25.1261 100.722 25.1021 100.182C25.1021 99.906 25.0961 99.588 25.0841 99.228C25.0841 98.868 25.0781 98.502 25.0661 98.13C25.0661 97.758 25.0661 97.398 25.0661 97.05C25.0661 96.69 25.0661 96.366 25.0661 96.078C25.0661 95.91 25.0601 95.706 25.0481 95.466C25.0481 95.226 25.0541 94.98 25.0661 94.728C25.0781 94.476 25.1081 94.236 25.1561 94.008C25.2041 93.768 25.2821 93.57 25.3901 93.414C25.4741 93.318 25.5941 93.246 25.7501 93.198C25.9061 93.138 26.0681 93.108 26.2361 93.108C26.4161 93.108 26.5841 93.138 26.7401 93.198C26.9081 93.258 27.0281 93.342 27.1001 93.45C27.1481 93.522 27.1841 93.624 27.2081 93.756C27.2321 93.888 27.2501 94.038 27.2621 94.206C27.2861 94.362 27.2981 94.53 27.2981 94.71C27.3101 94.878 27.3161 95.034 27.3161 95.178ZM26.6321 91.542C26.2601 91.638 25.9481 91.602 25.6961 91.434C25.4561 91.254 25.3061 90.99 25.2461 90.642C25.1981 90.39 25.2161 90.168 25.3001 89.976C25.3841 89.784 25.5101 89.64 25.6781 89.544C25.8461 89.436 26.0381 89.388 26.2541 89.4C26.4701 89.412 26.6861 89.496 26.9021 89.652C27.1061 89.796 27.2501 89.964 27.3341 90.156C27.4301 90.348 27.4601 90.534 27.4241 90.714C27.4001 90.894 27.3221 91.062 27.1901 91.218C27.0581 91.362 26.8721 91.47 26.6321 91.542ZM36.9077 94.116C36.9557 94.26 36.9677 94.422 36.9437 94.602C36.9197 94.782 36.8777 94.968 36.8177 95.16C36.7577 95.34 36.6857 95.52 36.6017 95.7C36.5297 95.868 36.4637 96.018 36.4037 96.15C36.0917 96.786 35.7977 97.41 35.5217 98.022C35.2457 98.634 34.9217 99.3 34.5497 100.02C34.4777 100.164 34.3937 100.338 34.2977 100.542C34.2137 100.734 34.1177 100.926 34.0097 101.118C33.9017 101.298 33.7817 101.466 33.6497 101.622C33.5297 101.778 33.3977 101.892 33.2537 101.964C33.1337 102.036 33.0137 102.066 32.8937 102.054C32.7977 102.078 32.6897 102.048 32.5697 101.964C32.4257 101.892 32.2877 101.778 32.1557 101.622C32.0357 101.466 31.9217 101.298 31.8137 101.118C31.7057 100.926 31.6037 100.734 31.5077 100.542C31.4237 100.338 31.3457 100.164 31.2737 100.02C31.1297 99.744 30.9917 99.486 30.8597 99.246C30.7397 99.006 30.6077 98.748 30.4637 98.472C30.3317 98.184 30.1817 97.86 30.0137 97.5C29.8457 97.128 29.6477 96.678 29.4197 96.15C29.3597 96.006 29.2937 95.856 29.2217 95.7C29.1497 95.544 29.0837 95.376 29.0237 95.196C28.9757 95.016 28.9397 94.836 28.9157 94.656C28.9037 94.464 28.9157 94.272 28.9517 94.08C28.9877 93.9 29.0777 93.756 29.2217 93.648C29.3657 93.54 29.5277 93.468 29.7077 93.432C29.8877 93.396 30.0677 93.402 30.2477 93.45C30.4277 93.486 30.5717 93.564 30.6797 93.684C30.7877 93.792 30.8897 93.936 30.9857 94.116C31.0817 94.296 31.1717 94.488 31.2557 94.692C31.3517 94.884 31.4357 95.082 31.5077 95.286C31.5917 95.478 31.6697 95.646 31.7417 95.79C31.9097 96.138 32.0957 96.516 32.2997 96.924C32.5157 97.332 32.7077 97.71 32.8757 98.058C32.9957 97.782 33.1037 97.554 33.1997 97.374C33.2957 97.182 33.3857 96.996 33.4697 96.816C33.5657 96.636 33.6617 96.438 33.7577 96.222C33.8657 96.006 33.9977 95.73 34.1537 95.394C34.2977 95.082 34.4417 94.776 34.5857 94.476C34.7417 94.176 34.9277 93.912 35.1437 93.684C35.2517 93.564 35.3897 93.486 35.5577 93.45C35.7257 93.402 35.8997 93.396 36.0797 93.432C36.2597 93.468 36.4217 93.546 36.5657 93.666C36.7217 93.774 36.8357 93.924 36.9077 94.116ZM44.0906 99.534C44.2346 99.498 44.3786 99.474 44.5226 99.462C44.6786 99.45 44.8166 99.468 44.9366 99.516C45.0686 99.564 45.1766 99.648 45.2606 99.768C45.3446 99.876 45.3866 100.032 45.3866 100.236C45.3866 100.38 45.3506 100.518 45.2786 100.65C45.2066 100.782 45.1166 100.902 45.0086 101.01C44.9006 101.118 44.7806 101.214 44.6486 101.298C44.5166 101.37 44.3906 101.43 44.2706 101.478C43.9226 101.634 43.5206 101.754 43.0646 101.838C42.6206 101.922 42.1586 101.952 41.6786 101.928C41.0306 101.904 40.4066 101.778 39.8066 101.55C39.2186 101.31 38.7566 100.92 38.4206 100.38C38.1086 99.852 37.9226 99.264 37.8626 98.616C37.8026 97.968 37.8326 97.356 37.9526 96.78C38.0846 96.084 38.3066 95.52 38.6186 95.088C38.9426 94.644 39.3266 94.29 39.7706 94.026C40.3106 93.714 40.9166 93.552 41.5886 93.54C42.2606 93.528 42.9026 93.66 43.5146 93.936C43.9226 94.116 44.2886 94.362 44.6126 94.674C44.9366 94.974 45.1826 95.34 45.3506 95.772C45.3986 95.88 45.4346 96.012 45.4586 96.168C45.4946 96.324 45.5186 96.492 45.5306 96.672C45.5426 96.84 45.5426 97.008 45.5306 97.176C45.5186 97.344 45.4886 97.494 45.4406 97.626C45.3686 97.842 45.2786 98.01 45.1706 98.13C45.0626 98.25 44.9246 98.34 44.7566 98.4C44.5886 98.46 44.3846 98.502 44.1446 98.526C43.9166 98.538 43.6406 98.55 43.3166 98.562C43.0286 98.574 42.7586 98.58 42.5066 98.58C42.2546 98.58 41.9966 98.58 41.7326 98.58C41.4686 98.568 41.1926 98.562 40.9046 98.562C40.6286 98.55 40.3166 98.538 39.9686 98.526C39.9326 98.766 39.9626 98.976 40.0586 99.156C40.1666 99.324 40.3106 99.468 40.4906 99.588C40.6706 99.696 40.8746 99.78 41.1026 99.84C41.3306 99.9 41.5526 99.936 41.7686 99.948C42.1766 99.972 42.5666 99.942 42.9386 99.858C43.3106 99.762 43.6946 99.654 44.0906 99.534ZM43.3166 96.042C43.0886 95.778 42.8486 95.586 42.5966 95.466C42.4046 95.382 42.2006 95.346 41.9846 95.358C41.7806 95.358 41.5826 95.388 41.3906 95.448C41.0426 95.532 40.7486 95.712 40.5086 95.988C40.4846 96.012 40.4426 96.072 40.3826 96.168C40.3226 96.252 40.2626 96.342 40.2026 96.438C40.1546 96.534 40.1186 96.624 40.0946 96.708C40.0706 96.792 40.0826 96.834 40.1306 96.834H43.6586C43.6466 96.666 43.6166 96.528 43.5686 96.42C43.5206 96.3 43.4366 96.174 43.3166 96.042ZM47.0036 95.628C47.0036 95.484 47.0036 95.322 47.0036 95.142C47.0036 94.95 47.0096 94.758 47.0216 94.566C47.0336 94.362 47.0516 94.17 47.0756 93.99C47.1116 93.798 47.1596 93.63 47.2196 93.486C47.3156 93.27 47.4656 93.126 47.6696 93.054C47.8736 92.97 48.0956 92.934 48.3356 92.946C48.5876 92.946 48.7856 92.988 48.9296 93.072C49.0736 93.156 49.1816 93.27 49.2536 93.414C49.3256 93.546 49.3676 93.702 49.3796 93.882C49.4036 94.05 49.4156 94.23 49.4156 94.422C49.5236 94.23 49.6676 94.074 49.8476 93.954C50.0396 93.834 50.2316 93.738 50.4236 93.666C50.6156 93.594 50.7896 93.546 50.9456 93.522C51.1016 93.486 51.1916 93.468 51.2156 93.468C51.5156 93.444 51.7856 93.438 52.0256 93.45C52.2776 93.462 52.5536 93.516 52.8536 93.612C53.0456 93.684 53.2436 93.786 53.4476 93.918C53.6516 94.038 53.8316 94.182 53.9876 94.35C54.1436 94.518 54.2456 94.704 54.2936 94.908C54.3536 95.1 54.3296 95.304 54.2216 95.52C54.0536 95.82 53.8676 95.97 53.6636 95.97C53.4596 95.958 53.2376 95.922 52.9976 95.862C52.8656 95.838 52.7096 95.784 52.5296 95.7C52.3496 95.616 52.1936 95.562 52.0616 95.538C51.6536 95.478 51.2936 95.508 50.9816 95.628C50.6696 95.748 50.3996 95.892 50.1716 96.06C49.9076 96.264 49.6796 96.498 49.4876 96.762V99.354C49.4876 99.678 49.4816 100.014 49.4696 100.362C49.4696 100.71 49.4216 101.028 49.3256 101.316C49.2416 101.592 49.0916 101.82 48.8756 102C48.6716 102.168 48.3716 102.24 47.9756 102.216C47.7596 102.204 47.5676 102.102 47.3996 101.91C47.2316 101.706 47.1296 101.508 47.0936 101.316C47.0696 101.136 47.0516 100.92 47.0396 100.668C47.0276 100.416 47.0156 100.152 47.0036 99.876C47.0036 99.6 47.0036 99.324 47.0036 99.048C47.0036 98.76 47.0036 98.496 47.0036 98.256V95.628ZM63.2633 93.972C63.3713 94.14 63.4193 94.32 63.4073 94.512C63.4073 94.788 63.3593 95.028 63.2633 95.232C63.2393 95.292 63.2033 95.37 63.1553 95.466C63.1193 95.562 63.0773 95.664 63.0293 95.772C62.9933 95.88 62.9513 95.982 62.9033 96.078C62.8553 96.174 62.8193 96.246 62.7953 96.294L62.7593 96.384C62.5913 96.756 62.4293 97.116 62.2733 97.464C62.1173 97.812 61.9433 98.184 61.7513 98.58C61.5593 98.964 61.3733 99.342 61.1933 99.714C61.0253 100.074 60.8573 100.428 60.6893 100.776C60.6413 100.872 60.5993 100.968 60.5633 101.064C60.5273 101.148 60.4793 101.238 60.4193 101.334L59.5553 103.188C59.3993 103.5 59.2493 103.806 59.1053 104.106C58.9733 104.406 58.8233 104.706 58.6553 105.006C58.6193 105.066 58.5833 105.12 58.5473 105.168C58.5233 105.228 58.4993 105.288 58.4753 105.348C58.3913 105.492 58.2653 105.63 58.0973 105.762C57.9413 105.906 57.7733 105.984 57.5933 105.996C57.2693 106.02 56.9873 105.924 56.7473 105.708C56.6033 105.624 56.4893 105.504 56.4053 105.348C56.3573 105.24 56.3333 105.102 56.3333 104.934C56.3453 104.862 56.3513 104.79 56.3513 104.718C56.3633 104.658 56.3753 104.598 56.3873 104.538C56.4113 104.478 56.4293 104.418 56.4413 104.358C56.4533 104.298 56.4713 104.25 56.4953 104.214C56.5313 104.118 56.5613 104.07 56.5853 104.07L57.8993 101.226C57.8393 101.094 57.7793 100.962 57.7193 100.83C57.6593 100.686 57.6053 100.56 57.5573 100.452C57.4013 100.08 57.2333 99.69 57.0533 99.282C56.8853 98.862 56.7113 98.448 56.5312 98.04C56.3513 97.62 56.1653 97.212 55.9733 96.816C55.7813 96.42 55.5893 96.042 55.3973 95.682C55.3253 95.562 55.2593 95.436 55.1993 95.304C55.1393 95.16 55.0913 95.022 55.0553 94.89C55.0193 94.746 55.0073 94.602 55.0193 94.458C55.0313 94.314 55.0853 94.17 55.1813 94.026C55.2773 93.846 55.4033 93.72 55.5593 93.648C55.7153 93.564 55.8773 93.528 56.0453 93.54C56.2253 93.54 56.3933 93.576 56.5493 93.648C56.7053 93.72 56.8313 93.816 56.9272 93.936C57.1313 94.152 57.2933 94.392 57.4133 94.656C57.5333 94.92 57.6473 95.19 57.7553 95.466C57.9833 95.946 58.2173 96.45 58.4573 96.978C58.6973 97.506 58.9373 98.022 59.1773 98.526L60.1133 96.546C60.2093 96.354 60.2933 96.168 60.3653 95.988C60.4493 95.808 60.5333 95.634 60.6173 95.466C60.7133 95.262 60.8033 95.052 60.8873 94.836C60.9833 94.62 61.0913 94.422 61.2113 94.242C61.2353 94.194 61.2593 94.152 61.2833 94.116C61.3073 94.08 61.3313 94.038 61.3553 93.99C61.4633 93.846 61.5593 93.732 61.6433 93.648C61.7033 93.6 61.7513 93.564 61.7873 93.54C61.8353 93.504 61.8893 93.48 61.9493 93.468C62.0333 93.444 62.1113 93.432 62.1833 93.432C62.2673 93.42 62.3453 93.42 62.4173 93.432C62.5373 93.468 62.6813 93.522 62.8493 93.594C63.0293 93.666 63.1673 93.792 63.2633 93.972ZM82.6566 90.39C83.1126 90.81 83.4486 91.314 83.6646 91.902C83.8806 92.478 83.9646 93.054 83.9166 93.63C83.8686 94.182 83.6946 94.692 83.3946 95.16C83.0946 95.616 82.6386 95.964 82.0266 96.204C81.5466 96.408 81.0726 96.552 80.6046 96.636C80.1366 96.72 79.6206 96.786 79.0566 96.834C78.8046 96.858 78.5886 96.876 78.4086 96.888C78.2406 96.888 78.0426 96.894 77.8146 96.906C77.7666 96.906 77.6826 96.906 77.5626 96.906C77.4546 96.906 77.3766 96.912 77.3286 96.924V100.65C77.2926 100.878 77.2446 101.112 77.1846 101.352C77.1366 101.592 76.9986 101.778 76.7706 101.91C76.6386 101.982 76.4766 102.024 76.2846 102.036C76.0926 102.048 75.9186 102.042 75.7626 102.018C75.5946 101.994 75.4506 101.952 75.3306 101.892C75.2226 101.82 75.1326 101.7 75.0606 101.532C75.0126 101.424 74.9646 101.304 74.9166 101.172C74.8806 101.028 74.8626 100.854 74.8626 100.65V90.696C74.8626 90.612 74.8686 90.534 74.8806 90.462C74.8926 90.39 74.9046 90.318 74.9166 90.246C74.9406 90.186 74.9586 90.12 74.9706 90.048C74.9826 89.976 75.0006 89.91 75.0246 89.85C75.0486 89.79 75.0726 89.736 75.0966 89.688C75.1326 89.64 75.1746 89.598 75.2226 89.562C75.2826 89.502 75.3726 89.448 75.4926 89.4C75.6246 89.352 75.8166 89.328 76.0686 89.328H76.1046C76.4766 89.304 76.8906 89.286 77.3466 89.274C77.8026 89.25 78.1806 89.256 78.4806 89.292C78.6486 89.316 78.8046 89.334 78.9486 89.346C79.0926 89.346 79.2306 89.352 79.3626 89.364C79.5066 89.376 79.6506 89.388 79.7946 89.4C79.9386 89.412 80.0826 89.43 80.2266 89.454C80.3466 89.478 80.4546 89.496 80.5506 89.508C80.6586 89.52 80.7666 89.538 80.8746 89.562C80.9706 89.586 81.0726 89.61 81.1806 89.634C81.3006 89.658 81.4086 89.7 81.5046 89.76C81.7566 89.832 81.9666 89.922 82.1346 90.03C82.3026 90.138 82.4766 90.258 82.6566 90.39ZM81.5766 93.36C81.5886 93.072 81.5286 92.82 81.3966 92.604C81.2766 92.388 81.1026 92.208 80.8746 92.064C80.6466 91.92 80.3886 91.806 80.1006 91.722C79.8126 91.638 79.5246 91.578 79.2366 91.542C79.1646 91.542 79.0626 91.542 78.9306 91.542C78.8106 91.53 78.6786 91.524 78.5346 91.524C78.3906 91.512 78.2526 91.506 78.1206 91.506C78.0006 91.494 77.9046 91.488 77.8326 91.488C77.7726 91.476 77.7006 91.47 77.6166 91.47C77.5326 91.47 77.4366 91.47 77.3286 91.47C77.3406 91.842 77.3466 92.202 77.3466 92.55C77.3466 92.886 77.3466 93.252 77.3466 93.648C77.3346 93.864 77.3286 94.08 77.3286 94.296C77.3286 94.512 77.3286 94.722 77.3286 94.926L78.4446 94.908C78.7326 94.908 79.0506 94.89 79.3986 94.854C79.7466 94.818 80.0766 94.746 80.3886 94.638C80.7006 94.53 80.9646 94.374 81.1806 94.17C81.4086 93.966 81.5406 93.696 81.5766 93.36ZM86.1444 94.422C86.5044 94.242 86.8824 94.116 87.2784 94.044C87.6744 93.96 88.0644 93.942 88.4484 93.99C88.8444 94.026 89.2224 94.128 89.5824 94.296C89.9424 94.452 90.2784 94.68 90.5904 94.98C90.9024 95.292 91.1424 95.634 91.3104 96.006C91.4784 96.378 91.5984 96.792 91.6704 97.248C91.7184 97.56 91.7964 97.848 91.9044 98.112C92.0124 98.376 92.1264 98.64 92.2464 98.904C92.3784 99.168 92.4984 99.432 92.6064 99.696C92.7264 99.96 92.8224 100.236 92.8944 100.524C92.9544 100.8 92.9304 101.07 92.8224 101.334C92.7264 101.586 92.5224 101.742 92.2104 101.802C92.0304 101.838 91.8564 101.826 91.6884 101.766C91.5324 101.694 91.3884 101.598 91.2564 101.478C91.1244 101.346 91.0044 101.208 90.8964 101.064C90.8004 100.908 90.7104 100.764 90.6264 100.632C90.3504 100.992 90.0504 101.274 89.7264 101.478C89.4024 101.67 89.0124 101.796 88.5564 101.856C88.1724 101.904 87.8064 101.916 87.4584 101.892C87.1104 101.868 86.7384 101.802 86.3424 101.694C85.8264 101.562 85.4004 101.334 85.0644 101.01C84.7404 100.674 84.4884 100.29 84.3084 99.858C84.1404 99.414 84.0504 98.94 84.0384 98.436C84.0264 97.932 84.0864 97.434 84.2184 96.942C84.3864 96.294 84.6384 95.766 84.9744 95.358C85.3104 94.95 85.7004 94.638 86.1444 94.422ZM86.5944 96.528C86.4264 96.696 86.2944 96.894 86.1984 97.122C86.1024 97.35 86.0424 97.59 86.0184 97.842C86.0064 98.094 86.0304 98.346 86.0904 98.598C86.1504 98.85 86.2464 99.072 86.3784 99.264C86.4984 99.432 86.7024 99.576 86.9904 99.696C87.2784 99.804 87.5784 99.87 87.8904 99.894C88.2504 99.918 88.5624 99.822 88.8264 99.606C89.1024 99.39 89.3064 99.12 89.4384 98.796C89.5824 98.46 89.6484 98.106 89.6364 97.734C89.6244 97.35 89.5224 97.002 89.3304 96.69C89.1864 96.462 88.9944 96.294 88.7544 96.186C88.5264 96.078 88.2804 96.024 88.0164 96.024C87.7524 96.012 87.4884 96.054 87.2244 96.15C86.9724 96.234 86.7624 96.36 86.5944 96.528ZM94.4099 95.628C94.4099 95.484 94.4099 95.322 94.4099 95.142C94.4099 94.95 94.4159 94.758 94.4279 94.566C94.4399 94.362 94.4579 94.17 94.4819 93.99C94.5179 93.798 94.5659 93.63 94.6259 93.486C94.7219 93.27 94.8719 93.126 95.0759 93.054C95.2799 92.97 95.5019 92.934 95.7419 92.946C95.9939 92.946 96.1919 92.988 96.3359 93.072C96.4799 93.156 96.5879 93.27 96.6599 93.414C96.7319 93.546 96.7739 93.702 96.7859 93.882C96.8099 94.05 96.8219 94.23 96.8219 94.422C96.9299 94.23 97.0739 94.074 97.2539 93.954C97.4459 93.834 97.6379 93.738 97.8299 93.666C98.0219 93.594 98.1959 93.546 98.3519 93.522C98.5079 93.486 98.5979 93.468 98.6219 93.468C98.9219 93.444 99.1919 93.438 99.4319 93.45C99.6839 93.462 99.9599 93.516 100.26 93.612C100.452 93.684 100.65 93.786 100.854 93.918C101.058 94.038 101.238 94.182 101.394 94.35C101.55 94.518 101.652 94.704 101.7 94.908C101.76 95.1 101.736 95.304 101.628 95.52C101.46 95.82 101.274 95.97 101.07 95.97C100.866 95.958 100.644 95.922 100.404 95.862C100.272 95.838 100.116 95.784 99.9359 95.7C99.7559 95.616 99.5999 95.562 99.4679 95.538C99.0599 95.478 98.6999 95.508 98.3879 95.628C98.0759 95.748 97.8059 95.892 97.5779 96.06C97.3139 96.264 97.0859 96.498 96.8939 96.762V99.354C96.8939 99.678 96.8879 100.014 96.8759 100.362C96.8759 100.71 96.8279 101.028 96.7319 101.316C96.6479 101.592 96.4979 101.82 96.2819 102C96.0779 102.168 95.7779 102.24 95.3819 102.216C95.1659 102.204 94.9739 102.102 94.8059 101.91C94.6379 101.706 94.5359 101.508 94.4999 101.316C94.4759 101.136 94.4579 100.92 94.4459 100.668C94.4339 100.416 94.4219 100.152 94.4099 99.876C94.4099 99.6 94.4099 99.324 94.4099 99.048C94.4099 98.76 94.4099 98.496 94.4099 98.256V95.628ZM110.322 94.062C110.418 94.29 110.424 94.542 110.34 94.818C110.268 95.094 110.13 95.274 109.926 95.358C109.818 95.406 109.674 95.448 109.494 95.484C109.314 95.508 109.116 95.532 108.9 95.556C108.696 95.58 108.492 95.598 108.288 95.61C108.084 95.622 107.91 95.628 107.766 95.628C107.778 95.988 107.79 96.36 107.802 96.744C107.814 97.116 107.826 97.482 107.838 97.842C107.85 98.202 107.856 98.55 107.856 98.886C107.856 99.21 107.85 99.504 107.838 99.768C107.838 99.948 107.838 100.158 107.838 100.398C107.838 100.626 107.82 100.848 107.784 101.064C107.76 101.28 107.718 101.472 107.658 101.64C107.598 101.796 107.508 101.898 107.388 101.946C107.016 102.102 106.674 102.144 106.362 102.072C106.062 102.012 105.846 101.886 105.714 101.694C105.618 101.538 105.546 101.358 105.498 101.154C105.45 100.938 105.414 100.722 105.39 100.506C105.378 100.278 105.372 100.062 105.372 99.858C105.384 99.642 105.39 99.456 105.39 99.3C105.402 98.796 105.408 98.226 105.408 97.59C105.42 96.942 105.426 96.294 105.426 95.646H105.156C105.012 95.646 104.826 95.646 104.598 95.646C104.382 95.634 104.16 95.616 103.932 95.592C103.716 95.556 103.512 95.514 103.32 95.466C103.128 95.406 102.99 95.322 102.906 95.214C102.774 95.058 102.69 94.89 102.654 94.71C102.63 94.53 102.642 94.362 102.69 94.206C102.75 94.038 102.84 93.894 102.96 93.774C103.08 93.642 103.218 93.558 103.374 93.522C103.59 93.462 103.896 93.432 104.292 93.432C104.688 93.42 105.06 93.42 105.408 93.432C105.396 93.312 105.39 93.198 105.39 93.09C105.39 92.97 105.384 92.856 105.372 92.748C105.36 92.604 105.354 92.424 105.354 92.208C105.354 91.98 105.366 91.758 105.39 91.542C105.426 91.314 105.48 91.104 105.552 90.912C105.624 90.708 105.726 90.552 105.858 90.444C106.038 90.3 106.218 90.222 106.398 90.21C106.59 90.186 106.764 90.21 106.92 90.282C107.088 90.354 107.226 90.462 107.334 90.606C107.454 90.738 107.538 90.888 107.586 91.056C107.622 91.2 107.652 91.374 107.676 91.578C107.7 91.77 107.712 91.974 107.712 92.19C107.724 92.406 107.73 92.622 107.73 92.838C107.73 93.054 107.73 93.252 107.73 93.432H107.91C108.09 93.432 108.3 93.426 108.54 93.414C108.78 93.402 109.014 93.408 109.242 93.432C109.482 93.456 109.698 93.516 109.89 93.612C110.082 93.696 110.226 93.846 110.322 94.062ZM119.529 93.972C119.637 94.14 119.685 94.32 119.673 94.512C119.673 94.788 119.625 95.028 119.529 95.232C119.505 95.292 119.469 95.37 119.421 95.466C119.385 95.562 119.343 95.664 119.295 95.772C119.259 95.88 119.217 95.982 119.169 96.078C119.121 96.174 119.085 96.246 119.061 96.294L119.025 96.384C118.857 96.756 118.695 97.116 118.539 97.464C118.383 97.812 118.209 98.184 118.017 98.58C117.825 98.964 117.639 99.342 117.459 99.714C117.291 100.074 117.123 100.428 116.955 100.776C116.907 100.872 116.865 100.968 116.829 101.064C116.793 101.148 116.745 101.238 116.685 101.334L115.821 103.188C115.665 103.5 115.515 103.806 115.371 104.106C115.239 104.406 115.089 104.706 114.921 105.006C114.885 105.066 114.849 105.12 114.813 105.168C114.789 105.228 114.765 105.288 114.741 105.348C114.657 105.492 114.531 105.63 114.363 105.762C114.207 105.906 114.039 105.984 113.859 105.996C113.535 106.02 113.253 105.924 113.013 105.708C112.869 105.624 112.755 105.504 112.671 105.348C112.623 105.24 112.599 105.102 112.599 104.934C112.611 104.862 112.617 104.79 112.617 104.718C112.629 104.658 112.641 104.598 112.653 104.538C112.677 104.478 112.695 104.418 112.707 104.358C112.719 104.298 112.737 104.25 112.761 104.214C112.797 104.118 112.827 104.07 112.851 104.07L114.165 101.226C114.105 101.094 114.045 100.962 113.985 100.83C113.925 100.686 113.871 100.56 113.823 100.452C113.667 100.08 113.499 99.69 113.319 99.282C113.151 98.862 112.977 98.448 112.797 98.04C112.617 97.62 112.431 97.212 112.239 96.816C112.047 96.42 111.855 96.042 111.663 95.682C111.591 95.562 111.525 95.436 111.465 95.304C111.405 95.16 111.357 95.022 111.321 94.89C111.285 94.746 111.273 94.602 111.285 94.458C111.297 94.314 111.351 94.17 111.447 94.026C111.543 93.846 111.669 93.72 111.825 93.648C111.981 93.564 112.143 93.528 112.311 93.54C112.491 93.54 112.659 93.576 112.815 93.648C112.971 93.72 113.097 93.816 113.193 93.936C113.397 94.152 113.559 94.392 113.679 94.656C113.799 94.92 113.913 95.19 114.021 95.466C114.249 95.946 114.483 96.45 114.723 96.978C114.963 97.506 115.203 98.022 115.443 98.526L116.379 96.546C116.475 96.354 116.559 96.168 116.631 95.988C116.715 95.808 116.799 95.634 116.883 95.466C116.979 95.262 117.069 95.052 117.153 94.836C117.249 94.62 117.357 94.422 117.477 94.242C117.501 94.194 117.525 94.152 117.549 94.116C117.573 94.08 117.597 94.038 117.621 93.99C117.729 93.846 117.825 93.732 117.909 93.648C117.969 93.6 118.017 93.564 118.053 93.54C118.101 93.504 118.155 93.48 118.215 93.468C118.299 93.444 118.377 93.432 118.449 93.432C118.533 93.42 118.611 93.42 118.683 93.432C118.803 93.468 118.947 93.522 119.115 93.594C119.295 93.666 119.433 93.792 119.529 93.972Z" fill="#FF480E"/>
</svg>
